<svg xmlns="http://www.w3.org/2000/svg" viewBox="0 0 800 700">
  <defs>
    <linearGradient id="nodeGrad" x1="0%" y1="0%" x2="100%" y2="100%">
      <stop offset="0%" style="stop-color:#2d2d2d"/>
      <stop offset="100%" style="stop-color:#1a1a1a"/>
    </linearGradient>
    <linearGradient id="activeGrad" x1="0%" y1="0%" x2="100%" y2="100%">
      <stop offset="0%" style="stop-color:#ff6b00"/>
      <stop offset="100%" style="stop-color:#cc5500"/>
    </linearGradient>
    <filter id="glow">
      <feGaussianBlur stdDeviation="4" result="coloredBlur"/>
      <feMerge>
        <feMergeNode in="coloredBlur"/>
        <feMergeNode in="SourceGraphic"/>
      </feMerge>
    </filter>
  </defs>
  
  <!-- Background -->
  <rect width="800" height="700" fill="#0a0a0a"/>
  
  <!-- Subtle grid -->
  <g stroke="#141414" stroke-width="1" opacity="0.5">
    <line x1="0" y1="100" x2="800" y2="100"/>
    <line x1="0" y1="200" x2="800" y2="200"/>
    <line x1="0" y1="300" x2="800" y2="300"/>
    <line x1="0" y1="400" x2="800" y2="400"/>
    <line x1="0" y1="500" x2="800" y2="500"/>
    <line x1="0" y1="600" x2="800" y2="600"/>
    <line x1="100" y1="0" x2="100" y2="700"/>
    <line x1="200" y1="0" x2="200" y2="700"/>
    <line x1="300" y1="0" x2="300" y2="700"/>
    <line x1="400" y1="0" x2="400" y2="700"/>
    <line x1="500" y1="0" x2="500" y2="700"/>
    <line x1="600" y1="0" x2="600" y2="700"/>
    <line x1="700" y1="0" x2="700" y2="700"/>
  </g>
  
  <!-- Title -->
  <text x="400" y="45" text-anchor="middle" fill="#e5e5e5" font-family="monospace" font-size="28" font-weight="bold">THE INTELLIGENCE CYCLE</text>
  <text x="400" y="70" text-anchor="middle" fill="#666" font-family="monospace" font-size="14">Continuous Process of Intelligence Production</text>
  
  <!-- Center circle -->
  <circle cx="400" cy="380" r="70" fill="none" stroke="#333" stroke-width="2" stroke-dasharray="5,5"/>
  <text x="400" y="372" text-anchor="middle" fill="#666" font-family="monospace" font-size="11">CONTINUOUS</text>
  <text x="400" y="388" text-anchor="middle" fill="#666" font-family="monospace" font-size="11">CYCLE</text>
  
  <!-- Flow arrows (simplified - curved paths with triangles) -->
  <g fill="none" stroke="#ff6b00" stroke-width="2" opacity="0.7">
    <!-- 1 to 2 -->
    <path d="M 470 160 Q 560 180 590 270"/>
    <polygon points="590,270 580,255 598,260" fill="#ff6b00"/>
    
    <!-- 2 to 3 -->
    <path d="M 610 345 Q 615 440 560 505"/>
    <polygon points="560,505 572,492 575,510" fill="#ff6b00"/>
    
    <!-- 3 to 4 -->
    <path d="M 470 545 Q 400 570 330 545"/>
    <polygon points="330,545 348,542 342,558" fill="#ff6b00"/>
    
    <!-- 4 to 5 -->
    <path d="M 240 505 Q 185 440 190 345"/>
    <polygon points="190,345 182,362 198,360" fill="#ff6b00"/>
    
    <!-- 5 to 6/1 -->
    <path d="M 210 270 Q 220 200 290 165"/>
    <polygon points="290,165 273,168 280,182" fill="#ff6b00"/>
  </g>
  
  <!-- Feedback loop (dashed) -->
  <g fill="none" stroke="#ff6b00" stroke-width="2" stroke-dasharray="6,4" opacity="0.5">
    <path d="M 330 130 Q 250 90 250 120 Q 250 90 400 85 Q 550 90 550 120 Q 550 90 470 130"/>
  </g>
  
  <!-- Node 1: Requirements -->
  <g transform="translate(400, 140)">
    <rect x="-75" y="-40" width="150" height="80" rx="10" fill="url(#activeGrad)" stroke="#ff8c40" stroke-width="2" filter="url(#glow)"/>
    <text x="0" y="-12" text-anchor="middle" fill="#0a0a0a" font-family="monospace" font-size="12" font-weight="bold">1. REQUIREMENTS</text>
    <text x="0" y="5" text-anchor="middle" fill="#1a1a1a" font-family="monospace" font-size="9">Planning &amp;</text>
    <text x="0" y="18" text-anchor="middle" fill="#1a1a1a" font-family="monospace" font-size="9">Direction</text>
  </g>
  
  <!-- Node 2: Collection -->
  <g transform="translate(600, 310)">
    <rect x="-65" y="-40" width="130" height="80" rx="10" fill="url(#nodeGrad)" stroke="#ff6b00" stroke-width="2"/>
    <text x="0" y="-12" text-anchor="middle" fill="#e5e5e5" font-family="monospace" font-size="12" font-weight="bold">2. COLLECTION</text>
    <text x="0" y="5" text-anchor="middle" fill="#888" font-family="monospace" font-size="9">Gathering</text>
    <text x="0" y="18" text-anchor="middle" fill="#888" font-family="monospace" font-size="9">Information</text>
  </g>
  
  <!-- Node 3: Processing -->
  <g transform="translate(520, 530)">
    <rect x="-65" y="-40" width="130" height="80" rx="10" fill="url(#nodeGrad)" stroke="#ff6b00" stroke-width="2"/>
    <text x="0" y="-12" text-anchor="middle" fill="#e5e5e5" font-family="monospace" font-size="12" font-weight="bold">3. PROCESSING</text>
    <text x="0" y="5" text-anchor="middle" fill="#888" font-family="monospace" font-size="9">Exploitation &amp;</text>
    <text x="0" y="18" text-anchor="middle" fill="#888" font-family="monospace" font-size="9">Conversion</text>
  </g>
  
  <!-- Node 4: Analysis -->
  <g transform="translate(280, 530)">
    <rect x="-65" y="-40" width="130" height="80" rx="10" fill="url(#nodeGrad)" stroke="#ff6b00" stroke-width="2"/>
    <text x="0" y="-12" text-anchor="middle" fill="#e5e5e5" font-family="monospace" font-size="12" font-weight="bold">4. ANALYSIS</text>
    <text x="0" y="5" text-anchor="middle" fill="#888" font-family="monospace" font-size="9">Production &amp;</text>
    <text x="0" y="18" text-anchor="middle" fill="#888" font-family="monospace" font-size="9">Synthesis</text>
  </g>
  
  <!-- Node 5: Dissemination -->
  <g transform="translate(200, 310)">
    <rect x="-70" y="-40" width="140" height="80" rx="10" fill="url(#nodeGrad)" stroke="#ff6b00" stroke-width="2"/>
    <text x="0" y="-12" text-anchor="middle" fill="#e5e5e5" font-family="monospace" font-size="11" font-weight="bold">5. DISSEMINATION</text>
    <text x="0" y="5" text-anchor="middle" fill="#888" font-family="monospace" font-size="9">Distribution to</text>
    <text x="0" y="18" text-anchor="middle" fill="#888" font-family="monospace" font-size="9">Consumers</text>
  </g>
  
  <!-- Feedback label -->
  <g transform="translate(400, 95)">
    <text x="0" y="0" text-anchor="middle" fill="#ff6b00" font-family="monospace" font-size="10" opacity="0.7">6. FEEDBACK</text>
  </g>
  
  <!-- Legend -->
  <g transform="translate(620, 600)">
    <rect x="0" y="0" width="160" height="70" rx="5" fill="#141414" stroke="#333" stroke-width="1"/>
    <text x="80" y="18" text-anchor="middle" fill="#888" font-family="monospace" font-size="10">LEGEND</text>
    <line x1="15" y1="35" x2="55" y2="35" stroke="#ff6b00" stroke-width="2"/>
    <text x="65" y="39" fill="#666" font-family="monospace" font-size="9">Process flow</text>
    <line x1="15" y1="52" x2="55" y2="52" stroke="#ff6b00" stroke-width="2" stroke-dasharray="6,4"/>
    <text x="65" y="56" fill="#666" font-family="monospace" font-size="9">Feedback loop</text>
  </g>
  
  <!-- Footer -->
  <text x="400" y="680" text-anchor="middle" fill="#333" font-family="monospace" font-size="10">burnedsignal.com | Intelligence Fundamentals</text>
</svg>
